<?xml version="1.0" encoding="utf-8"?>
<!-- Generator: Adobe Illustrator 22.0.1, SVG Export Plug-In . SVG Version: 6.00 Build 0)  -->
<svg version="1.1" id="Capa_1" xmlns="http://www.w3.org/2000/svg" xmlns:xlink="http://www.w3.org/1999/xlink" x="0px" y="0px"
	 viewBox="0 0 255.1 141.7" style="enable-background:new 0 0 255.1 141.7;" xml:space="preserve">
<style type="text/css">
	.st0{fill:#4CACA6;}
	.st1{fill:#4BACA6;}
	.st2{fill:#3EA69F;}
	.st3{fill:#46A9A3;}
	.st4{fill:#FFFFFF;stroke:#000000;stroke-width:2;}
</style>
<g>
	<g>
		<path class="st0" d="M140.9,61"/>
		<path class="st1" d="M116,79.7c0-2.4,1.8-2.9,3.8-2.9c7.2,0.3,14.4-1,21.5,0.7"/>
		<path class="st2" d="M140.9,61c-7,1.2-13.9,1.4-20.9-0.1C127,60.6,134,60.4,140.9,61z"/>
		<path class="st3" d="M139.9,68.9c-6.3,1.3-12.6,1.4-18.9,0C127.4,68.9,133.6,68.9,139.9,68.9z"/>
	</g>
</g>
<path class="st4" d="M199.4,37H57.7c-7.8,0-14.2-6.4-14.2-14.2v0c0-7.8,6.4-14.2,14.2-14.2h141.7c7.8,0,14.2,6.4,14.2,14.2v0
	C213.6,30.6,207.2,37,199.4,37z"/>
<path class="st4" d="M200.4,85H58.7c-7.8,0-14.2-6.4-14.2-14.2v0c0-7.8,6.4-14.2,14.2-14.2h141.7c7.8,0,14.2,6.4,14.2,14.2v0
	C214.6,78.6,208.2,85,200.4,85z"/>
<path class="st4" d="M200.4,133H58.7c-7.8,0-14.2-6.4-14.2-14.2v0c0-7.8,6.4-14.2,14.2-14.2h141.7c7.8,0,14.2,6.4,14.2,14.2v0
	C214.6,126.6,208.2,133,200.4,133z"/>
</svg>
